<?xml version="1.0" encoding="utf-8"?>
<!-- Generator: Adobe Illustrator 23.1.1, SVG Export Plug-In . SVG Version: 6.00 Build 0)  -->
<svg version="1.1" id="Layer_1" xmlns="http://www.w3.org/2000/svg" xmlns:xlink="http://www.w3.org/1999/xlink" x="0px" y="0px"
	 viewBox="0 0 1000 1000" style="enable-background:new 0 0 1000 1000;" xml:space="preserve">
<style type="text/css">
	.st0{fill:#ffffff;}
	.st1{fill:#135677;}
	.st2{opacity:0.15;fill:none;stroke:#135677;stroke-width:4;stroke-linecap:round;stroke-linejoin:round;stroke-miterlimit:10;}
	.st3{opacity:0.6;}
	.st4{opacity:0.15;}
	.st5{fill:none;stroke:#02283F;stroke-width:4;stroke-linecap:round;stroke-linejoin:round;stroke-miterlimit:10;}
	.st6{fill:none;stroke:#02283F;stroke-width:4;stroke-linejoin:round;stroke-miterlimit:10;}
	.st7{fill:#FFBF73;}
	.st8{opacity:0.43;fill:#FFBF73;}
	.st9{fill:none;stroke:#135677;stroke-width:8;stroke-linecap:round;stroke-linejoin:round;stroke-miterlimit:10;}
	.st10{fill:#4DCBAB;}
	.st11{opacity:0.49;fill:#4DCBAB;}
	.st12{opacity:0.21;fill:none;stroke:#72757C;stroke-width:3;stroke-linecap:round;stroke-miterlimit:10;}
	.st13{opacity:0.2;fill:#72757C;}
	.st14{fill:#FFC88D;}
	.st15{opacity:0.2;fill:#FFBF73;}
	.st16{fill:#FFFFFF;}
	.st17{fill:#82818C;}
	.st18{fill:none;stroke:#135677;stroke-width:6;stroke-linecap:round;stroke-linejoin:round;stroke-miterlimit:10;}
	.st19{fill:#FFAA58;}
	.st20{fill:none;stroke:#CCE1EA;stroke-width:4;stroke-linecap:round;stroke-linejoin:round;stroke-miterlimit:10;}
</style>
<rect id="XMLID_78_" class="st0" width="998" height="998"/>
<line id="XMLID_59_" class="st2" x1="562.7" y1="315.7" x2="584.1" y2="339.6"/>
<g id="XMLID_187_" class="st3">
	<g id="XMLID_72_" class="st4">
		<g id="XMLID_70_">
			<rect id="XMLID_67_" x="108.8" y="329" class="st5" width="152.5" height="371.6"/>
		</g>
		<line id="XMLID_73_" class="st5" x1="142" y1="698" x2="142" y2="329"/>
		<line id="XMLID_74_" class="st5" x1="230" y1="698" x2="230" y2="329"/>
		<line id="XMLID_75_" class="st5" x1="186" y1="698" x2="186" y2="329"/>
		<line id="XMLID_76_" class="st5" x1="109" y1="368" x2="262" y2="368"/>
		<line id="XMLID_77_" class="st5" x1="109" y1="387" x2="262" y2="387"/>
		<line id="XMLID_80_" class="st5" x1="109" y1="434" x2="262" y2="434"/>
		<line id="XMLID_79_" class="st5" x1="109" y1="455" x2="262" y2="455"/>
		<line id="XMLID_82_" class="st5" x1="109" y1="504" x2="262" y2="504"/>
		<line id="XMLID_81_" class="st5" x1="109" y1="525" x2="262" y2="525"/>
		<line id="XMLID_85_" class="st5" x1="109" y1="576" x2="262" y2="576"/>
		<line id="XMLID_83_" class="st5" x1="109" y1="596" x2="262" y2="596"/>
		<line id="XMLID_90_" class="st5" x1="109" y1="639" x2="262" y2="639"/>
		<line id="XMLID_89_" class="st5" x1="109" y1="658" x2="262" y2="658"/>
		<rect id="XMLID_71_" x="142.8" y="296.4" class="st5" width="87.7" height="33.4"/>
		<rect id="XMLID_92_" x="163.2" y="263" class="st5" width="46.9" height="33.4"/>
	</g>
	<g id="XMLID_69_" class="st4">
		<polyline id="XMLID_20_" class="st5" points="748.3,699.7 686.5,699.7 686.5,327.6 849.5,327.6 849.5,699.7 801.5,699.7 		"/>
		<rect id="XMLID_23_" x="707.6" y="361.7" class="st5" width="19.7" height="34.6"/>
		<rect id="XMLID_26_" x="741.3" y="361.7" class="st5" width="19.7" height="34.6"/>
		<rect id="XMLID_27_" x="775" y="361.7" class="st5" width="19.7" height="34.6"/>
		<rect id="XMLID_28_" x="808.8" y="361.7" class="st5" width="19.7" height="34.6"/>
		<rect id="XMLID_32_" x="707.6" y="413.7" class="st5" width="19.7" height="34.6"/>
		<rect id="XMLID_31_" x="741.3" y="413.7" class="st5" width="19.7" height="34.6"/>
		<rect id="XMLID_30_" x="775" y="413.7" class="st5" width="19.7" height="34.6"/>
		<rect id="XMLID_29_" x="808.8" y="413.7" class="st5" width="19.7" height="34.6"/>
		<rect id="XMLID_38_" x="707.6" y="512.7" class="st5" width="19.7" height="29.6"/>
		<rect id="XMLID_37_" x="741.3" y="512.7" class="st5" width="19.7" height="29.6"/>
		<rect id="XMLID_36_" x="775" y="512.7" class="st5" width="19.7" height="29.6"/>
		<rect id="XMLID_35_" x="808.8" y="512.7" class="st5" width="19.7" height="29.6"/>
		<rect id="XMLID_45_" x="707.6" y="618.1" class="st5" width="19.7" height="29.6"/>
		<rect id="XMLID_44_" x="741.3" y="618.1" class="st5" width="19.7" height="29.6"/>
		<rect id="XMLID_43_" x="775" y="618.1" class="st5" width="19.7" height="29.6"/>
		<rect id="XMLID_42_" x="808.8" y="618.1" class="st5" width="19.7" height="29.6"/>
		<line id="XMLID_33_" class="st5" x1="707" y1="478" x2="828" y2="478"/>
		<line id="XMLID_34_" class="st5" x1="707" y1="494" x2="828" y2="494"/>
		<line id="XMLID_39_" class="st5" x1="707" y1="562" x2="828" y2="562"/>
		<line id="XMLID_40_" class="st5" x1="707" y1="579" x2="828" y2="579"/>
		<line id="XMLID_41_" class="st5" x1="707" y1="596" x2="828" y2="596"/>
		<rect id="XMLID_24_" x="717.4" y="292" class="st5" width="110.6" height="35.6"/>
		<rect id="XMLID_47_" x="741.3" y="256.4" class="st5" width="62.8" height="35.6"/>
		<line id="XMLID_48_" class="st5" x1="771" y1="256" x2="771" y2="200"/>
	</g>
	<g id="XMLID_53_" class="st4">
		<polygon id="XMLID_52_" class="st5" points="604.7,700 520.6,700 520.6,339.1 562.7,293.2 604.7,339.1 		"/>
		<path id="XMLID_46_" class="st5" d="M675.2,700h-70.5V409.1c0-40.6,26.7-47.2,70.5-68.3L675.2,700z"/>
		<g id="XMLID_49_">
			<g id="XMLID_315_">
				<g id="XMLID_323_">
					<line id="XMLID_325_" class="st6" x1="630" y1="620" x2="630" y2="638"/>
					<line id="XMLID_324_" class="st6" x1="649" y1="620" x2="649" y2="638"/>
				</g>
			</g>
			<g id="XMLID_300_">
				<g id="XMLID_305_">
					<line id="XMLID_310_" class="st6" x1="630" y1="582" x2="630" y2="600"/>
					<line id="XMLID_309_" class="st6" x1="649" y1="582" x2="649" y2="600"/>
				</g>
			</g>
			<g id="XMLID_283_">
				<g id="XMLID_290_">
					<line id="XMLID_293_" class="st6" x1="630" y1="544" x2="630" y2="562"/>
					<line id="XMLID_291_" class="st6" x1="649" y1="544" x2="649" y2="562"/>
				</g>
			</g>
			<g id="XMLID_269_">
				<g id="XMLID_276_">
					<line id="XMLID_278_" class="st6" x1="630" y1="506" x2="630" y2="524"/>
					<line id="XMLID_277_" class="st6" x1="649" y1="506" x2="649" y2="524"/>
				</g>
			</g>
			<g id="XMLID_255_">
				<g id="XMLID_262_">
					<line id="XMLID_264_" class="st6" x1="630" y1="468" x2="630" y2="486"/>
					<line id="XMLID_263_" class="st6" x1="649" y1="468" x2="649" y2="486"/>
				</g>
			</g>
			<g id="XMLID_244_">
				<g id="XMLID_248_">
					<line id="XMLID_250_" class="st6" x1="630" y1="430" x2="630" y2="448"/>
					<line id="XMLID_249_" class="st6" x1="649" y1="430" x2="649" y2="448"/>
				</g>
			</g>
			<g id="XMLID_234_">
				<g id="XMLID_238_">
					<line id="XMLID_240_" class="st6" x1="630" y1="392" x2="630" y2="410"/>
					<line id="XMLID_239_" class="st6" x1="649" y1="392" x2="649" y2="410"/>
				</g>
			</g>
		</g>
		<path id="XMLID_88_" class="st5" d="M449.8,700h70.5V409.1c0-40.6-26.7-47.2-70.5-68.3L449.8,700z"/>
		<g id="XMLID_54_">
			<g id="XMLID_322_">
				<g id="XMLID_326_">
					<line id="XMLID_328_" class="st6" x1="492" y1="620" x2="492" y2="638"/>
					<line id="XMLID_327_" class="st6" x1="474" y1="620" x2="474" y2="638"/>
				</g>
			</g>
			<g id="XMLID_312_">
				<g id="XMLID_316_">
					<line id="XMLID_318_" class="st6" x1="492" y1="582" x2="492" y2="600"/>
					<line id="XMLID_317_" class="st6" x1="474" y1="582" x2="474" y2="600"/>
				</g>
			</g>
			<g id="XMLID_302_">
				<g id="XMLID_306_">
					<line id="XMLID_308_" class="st6" x1="492" y1="544" x2="492" y2="562"/>
					<line id="XMLID_307_" class="st6" x1="474" y1="544" x2="474" y2="562"/>
				</g>
			</g>
			<g id="XMLID_292_">
				<g id="XMLID_296_">
					<line id="XMLID_298_" class="st6" x1="492" y1="506" x2="492" y2="524"/>
					<line id="XMLID_297_" class="st6" x1="474" y1="506" x2="474" y2="524"/>
				</g>
			</g>
			<g id="XMLID_279_">
				<g id="XMLID_286_">
					<line id="XMLID_288_" class="st6" x1="492" y1="468" x2="492" y2="486"/>
					<line id="XMLID_287_" class="st6" x1="474" y1="468" x2="474" y2="486"/>
				</g>
			</g>
			<g id="XMLID_265_">
				<g id="XMLID_272_">
					<line id="XMLID_274_" class="st6" x1="492" y1="430" x2="492" y2="448"/>
					<line id="XMLID_273_" class="st6" x1="474" y1="430" x2="474" y2="448"/>
				</g>
			</g>
			<g id="XMLID_251_">
				<g id="XMLID_258_">
					<line id="XMLID_260_" class="st6" x1="492" y1="392" x2="492" y2="410"/>
					<line id="XMLID_259_" class="st6" x1="474" y1="392" x2="474" y2="410"/>
				</g>
			</g>
		</g>
		<line id="XMLID_55_" class="st5" x1="546" y1="352" x2="546" y2="611"/>
		<line id="XMLID_56_" class="st5" x1="582" y1="352" x2="582" y2="611"/>
		<g id="XMLID_58_">
			<g id="XMLID_181_">
				<line id="XMLID_182_" class="st5" x1="534.6" y1="604" x2="590.1" y2="604"/>
			</g>
			<g id="XMLID_178_">
				<line id="XMLID_179_" class="st5" x1="534.6" y1="566" x2="590.1" y2="566"/>
			</g>
			<g id="XMLID_175_">
				<line id="XMLID_176_" class="st5" x1="534.6" y1="528" x2="590.1" y2="528"/>
			</g>
			<g id="XMLID_172_">
				<line id="XMLID_173_" class="st5" x1="534.6" y1="490" x2="590.1" y2="490"/>
			</g>
			<g id="XMLID_169_">
				<line id="XMLID_170_" class="st5" x1="534.6" y1="452" x2="590.1" y2="452"/>
			</g>
			<g id="XMLID_166_">
				<line id="XMLID_167_" class="st5" x1="534.6" y1="414" x2="590.1" y2="414"/>
			</g>
			<g id="XMLID_163_">
				<line id="XMLID_164_" class="st5" x1="534.6" y1="376" x2="590.1" y2="376"/>
			</g>
		</g>
	</g>
	<g id="XMLID_61_" class="st4">
		<rect id="XMLID_57_" x="286.8" y="293.2" class="st5" width="147.1" height="406.5"/>
		<rect id="XMLID_60_" x="306.4" y="323.4" class="st5" width="17.3" height="288.6"/>
		<rect id="XMLID_63_" x="337" y="323.4" class="st5" width="17.3" height="288.6"/>
		<rect id="XMLID_64_" x="367.7" y="323.4" class="st5" width="17.3" height="288.6"/>
		<rect id="XMLID_65_" x="398.3" y="323.4" class="st5" width="17.3" height="288.6"/>
		<rect id="XMLID_62_" x="367.7" y="252" class="st5" width="47.9" height="41.2"/>
		<line id="XMLID_68_" class="st5" x1="390" y1="252" x2="390" y2="216"/>
		<rect id="XMLID_66_" x="304.5" y="266.3" class="st5" width="45.4" height="26.9"/>
	</g>
</g>
<path id="XMLID_25_" class="st7" d="M209.8,388.5c-8.7-7-21-7-29.7,0c-30,24.4-66.1,72.3-61.8,127.9c1.1,13.5,4.4,26.4,9.1,38.7
	c0.3,0.9,0.7,1.7,1.2,2.6c31.6,59.1,101.1,59.1,132.6,0c0.4-0.8,0.8-1.7,1.2-2.6c4.8-12.2,8.1-25.2,9.1-38.7
	C276,460.7,239.9,412.9,209.8,388.5z"/>
<path id="XMLID_180_" class="st8" d="M234.7,566.7c-35,0-63.3-44.3-63.3-99c0-35.3,11.8-66.2,29.6-83.8c-7.1-1.9-14.8-0.4-20.8,4.5
	c-30,24.4-66.1,72.3-61.8,127.9c1.1,13.5,4.4,26.4,9.1,38.7c0.3,0.9,0.7,1.7,1.2,2.6c31.6,59.1,101.1,59.1,132.6,0
	c0,0,0-0.1,0.1-0.1C253.3,563.4,244.2,566.7,234.7,566.7z"/>
<line id="XMLID_22_" class="st9" x1="195" y1="698" x2="195" y2="485"/>
<path id="XMLID_115_" class="st7" d="M98,700.9c0-31.4,25.5-56.9,56.9-56.9s56.9,25.5,56.9,56.9"/>
<path id="XMLID_12_" class="st8" d="M170.5,646.2c-4.9-1.4-10.1-2.2-15.5-2.2c-31.4,0-56.9,25.5-56.9,56.9h31.1
	C129.1,674.9,146.6,652.9,170.5,646.2z"/>
<g>
	<path id="XMLID_91_" class="st10" d="M285.6,628.2c-1.9-16.2,0.8-52.2,8.7-76.1c5.2-15.7,10-37.2,31.4-49.1
		c17.6-9.9,131.6-18,195.4-11.5c35.6,3.6,65.1,38.5,83.5,67.5c60.6,11.1,62.1,11.1,76.3,15.5c14.2,4.3,28.1,15.2,28.1,31.5
		c0,10.5,0,39.7,0,39.7H287.3C286.7,635.7,286.2,638.1,285.6,628.2z"/>
	<path id="XMLID_189_" class="st11" d="M681.9,571.4c-14.2-4.3-15.7-4.3-76.3-15.5c-18.4-29-47.9-63.9-83.5-67.5
		c-63.8-6.5-177.8,1.6-195.4,11.5c-4.8,2.7-8.7,5.9-12.1,9.3c0,0,0.1,0,0.1-0.1c17.6-9.9,131.6-18,195.4-11.5
		c33.5,3.4,64,34.6,82.7,62.4c2.2,3.3,5.7,5.5,9.6,6.2c54.3,10,53.7,10.1,67.5,14.3c14.2,4.3,28.1,15.2,28.1,31.5c0,6.7,0,21,0,30.4
		h12c0,0,0-29.2,0-39.7C710,586.6,696.1,575.7,681.9,571.4z"/>
	<line id="XMLID_174_" class="st12" x1="515" y1="553.7" x2="515" y2="642.8"/>
	<line id="XMLID_177_" class="st12" x1="375" y1="553.7" x2="372.7" y2="642.8"/>
	<path id="XMLID_183_" class="st13" d="M324.8,552.1c5.2-15.7,10-37.2,31.4-49.1c12.1-6.8,69.5-12.7,125-13.7
		c-63-1.2-141.1,5.6-155.5,13.7c-21.4,12-26.2,33.4-31.4,49.1c-7.9,23.9-10.5,59.9-8.7,76.1c0.6,9.9,1.1,7.5,1.7,17.5h30.5
		c-0.6-10-1.1-7.6-1.7-17.5C314.2,612,316.9,576,324.8,552.1z"/>
	<path id="XMLID_8_" class="st9" d="M285.6,628.2c-1.9-16.2,0.8-52.2,8.7-76.1c5.2-15.7,10-37.2,31.4-49.1
		c17.6-9.9,131.6-18,195.4-11.5c33.4,3.4,61.4,34.3,79.9,62c2.4,3.5,6.1,6,10.3,6.7c54,9.9,55.9,10.1,69.6,14.2
		c14.2,4.3,28.1,15.2,28.1,31.5c0,10.5,0,39.7,0,39.7H287.3C286.7,635.7,286.2,638.1,285.6,628.2z"/>
	<path id="XMLID_108_" class="st14" d="M515.1,559.3c-7.4-23.9-20.2-44.7-29.5-57.8c12.9,0.5,24.3,1.4,34.1,2.5
		c29.6,3.5,54,31.5,70.3,56.5L515.1,559.3z"/>
	<path id="XMLID_186_" class="st15" d="M530.2,539.5c-5.5-10,2.4-22,13.7-20.9c2.1,0.2,4.1,0.4,6.1,0.7c1.7,0.2,3.4,0.5,5,0.9
		c-10.6-8.5-22.5-14.6-35.3-16.1c-9.8-1.2-21.3-2-34.1-2.5c9.3,13.1,22.1,33.9,29.5,57.8l24.9,0.4
		C537,552.5,533.6,545.7,530.2,539.5z"/>
	<path id="XMLID_21_" class="st9" d="M515.1,559.3c-7.4-23.9-20.2-44.7-29.5-57.8c12.9,0.5,24.3,1.4,34.1,2.5
		c29.6,3.5,54,31.5,70.3,56.5L515.1,559.3z"/>
	<path id="XMLID_100_" class="st14" d="M385,558.3l4.3-53.2c23.3-1.7,49-2.5,72.6-2.4c2.5,0,5,0,7.4,0.1c9,11.2,23.8,31.9,32.5,56.2
		L385,558.3z"/>
	<path id="XMLID_185_" class="st15" d="M403.1,532c0.7-9.2,9.1-16.5,19.6-17.1c17.3-0.9,35.2-1.3,52.1-1.2c0.9,0,1.8,0,2.8,0
		c-3-4.3-5.8-8-8.3-11c-2.5,0-4.9-0.1-7.4-0.1c-23.6-0.1-49.3,0.7-72.6,2.4l-4.3,53.2l16,0.1L403.1,532z"/>
	<path id="XMLID_18_" class="st9" d="M385,558.3l4.3-53.2c23.3-1.7,49-2.5,72.6-2.4c2.5,0,5,0,7.4,0.1c9,11.2,23.8,31.9,32.5,56.2
		L385,558.3z"/>
	<path id="XMLID_93_" class="st16" d="M356.8,658.8h-73.4c-9.9,0-18-8.1-18-18v0c0-9.9,8.1-18,18-18h73.4V658.8z"/>
	<path id="XMLID_190_" class="st13" d="M286.8,645.6c0-9.9,8.1-18,18-18h51.9v-4.7h-73.4c-9.9,0-18,8.1-18,18v0c0,9.9,8.1,18,18,18
		h9.4C289.1,655.6,286.8,650.8,286.8,645.6z"/>
	<path id="XMLID_7_" class="st9" d="M356.8,658.8h-73.4c-9.9,0-18-8.1-18-18v0c0-9.9,8.1-18,18-18h73.4V658.8z"/>
	<path id="XMLID_99_" class="st16" d="M712,658.8h-60.1v-30H712c8.3,0,15,6.7,15,15v0C727,652.1,720.3,658.8,712,658.8z"/>
	<path id="XMLID_192_" class="st13" d="M655.8,640.4H716c4.3,0,8.2,1.9,11,4.8c0-0.5,0.1-0.9,0.1-1.4v0c0-8.3-6.7-15-15-15h-60.1v30
		h4V640.4z"/>
	<path id="XMLID_9_" class="st9" d="M712,658.8h-60.1v-30H712c8.3,0,15,6.7,15,15v0C727,652.1,720.3,658.8,712,658.8z"/>
	<rect id="XMLID_96_" x="389.9" y="642.8" class="st16" width="185.5" height="16"/>
	<rect id="XMLID_160_" x="389.9" y="642.8" class="st13" width="185.5" height="8"/>
	<rect id="XMLID_10_" x="389.9" y="642.8" class="st9" width="185.5" height="16"/>
	<circle id="XMLID_97_" class="st17" cx="620.3" cy="655.1" r="44.5"/>
	<circle id="XMLID_17_" class="st9" cx="620.3" cy="655.1" r="44.5"/>
	<circle id="XMLID_98_" class="st16" cx="620.3" cy="655.1" r="24.1"/>
	<circle id="XMLID_16_" class="st9" cx="620.3" cy="655.1" r="24.1"/>
	<circle id="XMLID_15_" class="st9" cx="620.3" cy="655.1" r="7.4"/>
	<path id="XMLID_19_" class="st9" d="M534.5,645.6"/>
	<circle id="XMLID_94_" class="st17" cx="362.4" cy="655.1" r="44.5"/>
	<circle id="XMLID_11_" class="st9" cx="362.4" cy="655.1" r="44.5"/>
	<circle id="XMLID_95_" class="st16" cx="362.4" cy="655.1" r="24.1"/>
	<circle id="XMLID_13_" class="st9" cx="362.4" cy="655.1" r="24.1"/>
	<circle id="XMLID_14_" class="st9" cx="362.4" cy="655.1" r="7.4"/>
	<path id="XMLID_105_" class="st14" d="M376.8,504.1c-26.5,2.8-40.1,6.3-44.1,8.7c-15.7,9.6-20.5,25.8-24.7,40.1
		c-0.5,1.6-0.9,3.1-1.4,4.6c-0.1,0.4-0.2,0.8-0.4,1.2h66.9L376.8,504.1z"/>
	<path id="XMLID_184_" class="st15" d="M323.3,558.1c4.2-14.3,8.9-30.5,24.7-40.1c3.1-1.9,12.1-4.4,28.4-6.7l0.5-7.2
		c-26.5,2.8-40.1,6.3-44.1,8.7c-15.7,9.6-20.5,25.8-24.7,40.1c-0.5,1.6-0.9,3.1-1.4,4.6c-0.1,0.4-0.2,0.8-0.4,1.2h16.7
		C323.2,558.5,323.2,558.3,323.3,558.1z"/>
	<path id="XMLID_109_" class="st9" d="M376.8,504.1c-26.5,2.8-40.1,6.3-44.1,8.7c-15.7,9.6-20.5,25.8-24.7,40.1
		c-0.5,1.6-0.9,3.1-1.4,4.6c-0.1,0.4-0.2,0.8-0.4,1.2h66.9L376.8,504.1z"/>
	<g id="XMLID_111_">
		<path class="st16" d="M717.1,597.8c1.1,6.8-5.2,12.4-15.2,13.3c-9.5,0.9-20.4-3.3-22.2-10.1c-1.1-6.8,10.3-12.9,19.9-13.8
			C709.1,586.3,715.8,591,717.1,597.8z"/>
	</g>
	<g id="XMLID_110_">
		<path class="st9" d="M717.1,597.8c1.1,6.8-5.2,12.4-15.2,13.3c-9.5,0.9-20.4-3.3-22.2-10.1c-1.1-6.8,10.3-12.9,19.9-13.8
			C709.1,586.3,715.8,591,717.1,597.8z"/>
	</g>
	<line id="XMLID_113_" class="st9" x1="544" y1="576.7" x2="525" y2="576.7"/>
	<line id="XMLID_114_" class="st9" x1="407" y1="576.7" x2="387" y2="576.7"/>
</g>
<path id="XMLID_120_" class="st18" d="M215.8,455.5c-3.6,4.1-4.5,9.6-3.1,14.5c4.6,0.2,9.2-1.6,12.4-5.3c3.6-4.1,4.5-9.6,3.1-14.5
	C223.7,450,219.1,451.8,215.8,455.5z"/>
<path id="XMLID_137_" class="st18" d="M188,425.1c-0.2,5.3,2.4,10,6.5,12.9c3.6-2.7,6-6.8,6.2-11.6c0.2-5.3-2.4-10-6.5-12.9
	C190.6,416.1,188.2,420.3,188,425.1z"/>
<path id="XMLID_119_" class="st18" d="M158.1,471.3c1.4,5.3,5.3,9.2,10.2,10.8c2.7-3.7,3.9-8.5,2.6-13.3c-1.4-5.3-5.3-9.2-10.2-10.8
	C157.9,461.7,156.8,466.6,158.1,471.3z"/>
<path id="XMLID_146_" class="st18" d="M92.2,589.3c-1.2,5.3,0.6,10.6,4.2,14.3c4.1-2,7.3-5.8,8.4-10.6c1.2-5.3-0.6-10.6-4.2-14.3
	C96.4,580.7,93.3,584.5,92.2,589.3z"/>
<path id="XMLID_116_" class="st18" d="M225.3,546.7c-3.6,3.2-5.1,8-4.4,12.5c4,0.7,8.3-0.4,11.6-3.4c3.6-3.2,5.1-8,4.4-12.5
	C232.8,542.7,228.5,543.8,225.3,546.7z"/>
<path id="XMLID_128_" class="st9" d="M164.3,538c0,0,9.2,24.7,30.7,26.3"/>
<path id="XMLID_134_" class="st9" d="M194.9,538.6c0,0,19.5-8.4,21.1-28.9"/>
<path id="XMLID_145_" class="st7" d="M143.8,697c-5.1-14.2-18.7-24.3-34.7-24.3S79.6,682.8,74.4,697H143.8z"/>
<path id="XMLID_102_" class="st19" d="M121.7,674.9c-3.9-1.4-8.1-2.2-12.6-2.2c-16,0-29.5,10.1-34.7,24.3h25.1
	C103.3,686.7,111.4,678.6,121.7,674.9z"/>
<line id="XMLID_3_" class="st9" x1="267.5" y1="699.7" x2="68.1" y2="699.7"/>
<line id="XMLID_5_" class="st9" x1="748.3" y1="699.7" x2="283" y2="699.7"/>
<line id="XMLID_2_" class="st9" x1="782.7" y1="699.7" x2="769" y2="699.7"/>
<line id="XMLID_84_" class="st9" x1="931.9" y1="699.7" x2="799.8" y2="699.7"/>
<line id="XMLID_143_" class="st9" x1="155" y1="666" x2="155" y2="697"/>
<line id="XMLID_144_" class="st9" x1="174.7" y1="678" x2="155" y2="697"/>
<line id="XMLID_147_" class="st18" x1="887" y1="442" x2="887" y2="697"/>
<line id="XMLID_148_" class="st18" x1="841.7" y1="397.1" x2="887" y2="442.3"/>
<rect id="XMLID_122_" x="822.3" y="421.5" transform="matrix(0.7071 0.7071 -0.7071 0.7071 553.0488 -472.6724)" class="st7" width="49.5" height="19.6"/>
<rect id="XMLID_140_" x="822.3" y="421.5" transform="matrix(0.7071 0.7071 -0.7071 0.7071 553.0488 -472.6724)" class="st18" width="49.5" height="19.6"/>
<line id="XMLID_121_" class="st18" x1="899.7" y1="490" x2="899.7" y2="697"/>
<line id="XMLID_118_" class="st18" x1="944.9" y1="445.1" x2="899.7" y2="490.3"/>
<rect id="XMLID_101_" x="914.8" y="469.5" transform="matrix(-0.7071 0.7071 -0.7071 -0.7071 1942.8821 153.7374)" class="st7" width="49.5" height="19.6"/>
<rect id="XMLID_117_" x="914.8" y="469.5" transform="matrix(-0.7071 0.7071 -0.7071 -0.7071 1942.8821 153.7374)" class="st18" width="49.5" height="19.6"/>
<g id="XMLID_124_">
	<line id="XMLID_125_" class="st20" x1="500" y1="154.6" x2="500" y2="177.7"/>
	<line id="XMLID_126_" class="st20" x1="479.2" y1="158.3" x2="487.1" y2="180"/>
	<line id="XMLID_127_" class="st20" x1="460.8" y1="168.8" x2="475.7" y2="186.6"/>
	<line id="XMLID_129_" class="st20" x1="447.2" y1="185.1" x2="467.3" y2="196.6"/>
	<line id="XMLID_131_" class="st20" x1="440" y1="204.9" x2="462.8" y2="209"/>
	<line id="XMLID_132_" class="st20" x1="440" y1="226.1" x2="462.8" y2="222.1"/>
	<line id="XMLID_133_" class="st20" x1="447.2" y1="246" x2="467.3" y2="234.4"/>
	<line id="XMLID_135_" class="st20" x1="460.8" y1="262.2" x2="475.7" y2="244.5"/>
	<line id="XMLID_136_" class="st20" x1="479.2" y1="272.8" x2="487.1" y2="251"/>
	<line id="XMLID_138_" class="st20" x1="500" y1="276.4" x2="500" y2="253.3"/>
	<line id="XMLID_139_" class="st20" x1="520.8" y1="272.8" x2="512.9" y2="251"/>
	<line id="XMLID_141_" class="st20" x1="539.2" y1="262.2" x2="524.3" y2="244.5"/>
	<line id="XMLID_142_" class="st20" x1="552.8" y1="246" x2="532.7" y2="234.4"/>
	<line id="XMLID_149_" class="st20" x1="560" y1="226.1" x2="537.2" y2="222.1"/>
	<line id="XMLID_150_" class="st20" x1="560" y1="204.9" x2="537.2" y2="209"/>
	<line id="XMLID_151_" class="st20" x1="552.8" y1="185.1" x2="532.7" y2="196.6"/>
	<line id="XMLID_153_" class="st20" x1="539.2" y1="168.8" x2="524.3" y2="186.6"/>
	<line id="XMLID_159_" class="st20" x1="520.8" y1="158.3" x2="512.9" y2="180"/>
</g>
<circle id="XMLID_123_" class="st7" cx="500" cy="215.5" r="20.8"/>
<path id="XMLID_161_" class="st20" d="M808.7,163.5c0.1-0.7,0.1-1.5,0.1-2.2c0-14.8-12-26.7-26.7-26.7c-5.7,0-11,1.8-15.3,4.8
	c-3.2-11.2-13.5-19.3-25.7-19.3c-2.1,0-4.1,0.2-6.1,0.7c-6.7-7.5-16.5-12.3-27.4-12.3c-18.7,0-34.2,14-36.5,32.1
	c-0.4,0-0.8-0.1-1.3-0.1c-11.5,0-20.8,9.3-20.8,20.8c0,0.7,0,1.5,0.1,2.2H808.7z"/>
<path id="XMLID_162_" class="st20" d="M191.2,174.1c-4.5-6.4-12-10.7-20.5-10.7c-2,0-3.9,0.2-5.7,0.7c-6.3-7-15.5-11.5-25.7-11.5
	c-17.5,0-32,13.1-34.1,30c-0.4,0-0.8-0.1-1.2-0.1c-10.7,0-19.5,8.7-19.5,19.5c0,0.7,0,1.4,0.1,2.1h101.9"/>
<line id="XMLID_165_" class="st20" x1="272" y1="212.3" x2="358.1" y2="212.3"/>
<line id="XMLID_168_" class="st20" x1="331.2" y1="234.4" x2="352.1" y2="234.4"/>
<line id="XMLID_171_" class="st20" x1="307.3" y1="222.1" x2="345.9" y2="222.1"/>
<line id="XMLID_188_" class="st20" x1="527.4" y1="93" x2="592.6" y2="93"/>
<line id="XMLID_191_" class="st20" x1="562.7" y1="108.5" x2="640" y2="108.5"/>
<path id="XMLID_194_" class="st20" d="M257.1,204.1c0.9-2.1,1.4-4.4,1.4-6.9c0-9.3-7.4-16.8-16.6-16.8c-2.3,0-4.5,0.5-6.5,1.3
	c-3.7-9.9-13.2-17-24.3-17c-13.3,0-24.2,10-25.7,22.8c-1.1-0.2-2.2-0.4-3.3-0.4c-8.4,0-15.1,6.6-15.1,14.7c0,0.7,0.1,1.5,0.2,2.2
	H257.1z"/>
</svg>
