<?xml version="1.0" encoding="utf-8"?>
<!-- Generator: Adobe Illustrator 23.1.1, SVG Export Plug-In . SVG Version: 6.00 Build 0)  -->
<svg version="1.1" id="Layer_1" xmlns="http://www.w3.org/2000/svg" xmlns:xlink="http://www.w3.org/1999/xlink" x="0px" y="0px"
	 viewBox="0 0 1000 800" style="enable-background:new 0 0 800 800;" xml:space="preserve">
<style type="text/css">
	.st0{fill:#ffffff;}
	.st1{fill:#EEF2F4;}
	.st2{fill:none;stroke:#579AA3;stroke-width:6;stroke-miterlimit:10;}
	.st3{fill:#579AA3;}
	.st4{fill:none;stroke:#2F3140;stroke-width:8;stroke-linecap:round;stroke-linejoin:round;stroke-miterlimit:10;}
	.st5{fill:#2F3140;}
	.st6{fill:#579AA3;stroke:#579AA3;stroke-width:6;stroke-miterlimit:10;}
	.st7{fill:#7C7C94;}
	.st8{fill:none;stroke:#2F3140;stroke-width:3;stroke-linecap:round;stroke-linejoin:round;stroke-miterlimit:10;}
	.st9{fill:#6C6D81;}
	.st10{fill:#565864;}
	.st11{fill:none;stroke:#C06D4F;stroke-width:2;stroke-linecap:round;stroke-linejoin:round;stroke-miterlimit:10;}
	.st12{fill:#51566A;}
	.st13{fill:none;stroke:#2F3140;stroke-width:6;stroke-linecap:round;stroke-linejoin:round;stroke-miterlimit:10;}
	.st14{fill:#9093A2;}
	.st15{fill:#3C4155;}
	.st16{fill:#3B4254;}
</style>
<rect id="XMLID_4_" class="st0" width="1000" height="1000"/>

<path id="XMLID_27_" class="st2" d="M501,282.6c0,0,0-32.7,0-58.3c0-16.6-13.4-30-30-30H308c-16.6,0-30-13.4-30-30v0
	c0-16.6,13.4-30,30-30h286.4c16.6,0,30-13.4,30-30v0c0-16.6-13.4-30-30-30H531c-16.6,0-30-13.4-30-30c0-17.6,0-36.3,0-36.3"/>
<path id="XMLID_39_" class="st3" d="M510.8,295.6h-21.7c-1.6,0-2.8-1.3-2.8-2.8v-2.5c0-1.6,1.3-2.8,2.8-2.8h21.7
	c1.6,0,2.8,1.3,2.8,2.8v2.5C513.7,294.3,512.4,295.6,510.8,295.6z"/>
<path id="XMLID_38_" class="st3" d="M510.4,282.8h-20.8c-1.8,0-3.3-1.5-3.3-3.3v-1.7c0-1.8,1.5-3.3,3.3-3.3h20.8
	c1.8,0,3.3,1.5,3.3,3.3v1.7C513.7,281.3,512.2,282.8,510.4,282.8z"/>
<path id="XMLID_37_" class="st3" d="M509.9,288.8h-19.8c-1.2,0-2.2-1-2.2-2.2v-2.9c0-1.2,1-2.2,2.2-2.2h19.8c1.2,0,2.3,1,2.3,2.2
	v2.9C512.2,287.8,511.2,288.8,509.9,288.8z"/>
<path id="XMLID_35_" class="st4" d="M492,274.6c0,0,0-32.7,0-58.3c0-16.6-13.4-30-30-30H299c-16.6,0-30-13.4-30-30v0
	c0-16.6,13.4-30,30-30h286.4c16.6,0,30-13.4,30-30v0c0-16.6-13.4-30-30-30H522c-16.6,0-30-13.4-30-30c0-17.6,0-36.3,0-36.3"/>
<path id="XMLID_26_" class="st5" d="M502.8,295.6h-21.7c-1.6,0-2.8-1.3-2.8-2.8v-2.5c0-1.6,1.3-2.8,2.8-2.8h21.7
	c1.6,0,2.8,1.3,2.8,2.8v2.5C505.7,294.3,504.4,295.6,502.8,295.6z"/>
<path id="XMLID_33_" class="st5" d="M502.4,282.8h-20.8c-1.8,0-3.3-1.5-3.3-3.3v-1.7c0-1.8,1.5-3.3,3.3-3.3h20.8
	c1.8,0,3.3,1.5,3.3,3.3v1.7C505.7,281.3,504.2,282.8,502.4,282.8z"/>
<path id="XMLID_31_" class="st5" d="M501.9,288.3h-19.8c-1.2,0-2.2-1-2.2-2.2v-1.9c0-1.2,1-2.2,2.2-2.2h19.8c1.2,0,2.2,1,2.2,2.2
	v1.9C504.2,287.3,503.2,288.3,501.9,288.3z"/>
<path id="XMLID_36_" class="st6" d="M599.8,360.1c-1.5-3.5-3.6-6.7-5.9-9.6c-0.2-0.4-0.3-0.8-0.5-1.2c-5.6-14.4-21.8-23.4-21.8-23.4
	c-15.1-9.1-30.4-14.6-44.9-18.3c-3.8-1-7.5,1.9-7.5,5.8v17.8h-36v-17.8c0-3.9-3.7-6.8-7.5-5.8c-14.6,3.7-29.8,9.2-44.9,18.3
	c0,0-16.2,8.9-21.8,23.4c-5.1,13-12,35-18.3,61.4l-9.3,3c-4.9,21.1-9.3,44.7-12.1,68.5l8.7-2.7c-0.9,6.9-1.6,13.9-2.2,20.9l-8.5,2.2
	c-2.3,29.8-1.5,59,4.6,83.1l9.2,1.4c0.1,0.3,0.2,0.7,0.3,1c31.7,75.9,49.7,120.8,63.4,130c13.5,9.1,40.8,11.3,56.5,10.7
	c15.5,0.7,42.4-0.8,56.1-9.7l0,0c1.2-0.6,1.8-1.3,2.9-2c14.7-9.2,31.9-45.4,62-112.4l6-13.4l0.1-0.3
	C651,520.1,615.3,396.9,599.8,360.1z"/>
<path id="XMLID_14_" class="st7" d="M384,480.3h-11l-15,3.9c-2.3,29.8-1.5,59,4.6,83.1l29.8,4.5L384,480.3z"/>
<path id="XMLID_12_" class="st8" d="M384,480.3h-11l-15,3.9c-2.3,29.8-1.5,59,4.6,83.1l29.8,4.5L384,480.3z"/>
<path id="XMLID_15_" class="st7" d="M374.7,459.3l13-69l-15.5,5c-4.9,21.1-9.3,44.7-12.1,68.5L374.7,459.3z"/>
<path id="XMLID_24_" class="st9" d="M387,480.3h-11l-15,3.9c-2.3,29.8-1.5,59,4.6,83.1l29.8,4.5L387,480.3z"/>
<path id="XMLID_20_" class="st9" d="M377.7,459.3l13-69l-15.5,5c-4.9,21.1-9.3,44.7-12.1,68.5L377.7,459.3z"/>
<path id="XMLID_13_" class="st8" d="M374.7,459.3l13-69l-15.5,5c-4.9,21.1-9.3,44.7-12.1,68.5L374.7,459.3z"/>
<path id="XMLID_10_" class="st10" d="M590.6,341.8c-6.3-15-23.3-24.2-25.1-25.1c-5.6-3.1-11.4-5.9-17.4-8.4v392.9
	c1.2-0.6,2.5-1.3,3.6-2c14.7-9.2,31.2-46.1,61.4-113l6-13.4l0.1-0.3C641.8,501.8,606.1,378.7,590.6,341.8z"/>
<path id="XMLID_11_" class="st8" d="M590.6,341.8c-6.3-15-23.3-24.2-25.1-25.1c-5.6-3.1-11.4-5.9-17.4-8.4v392.9
	c1.2-0.6,2.5-1.3,3.6-2c14.7-9.2,31.2-46.1,61.4-113l6-13.4l0.1-0.3C641.8,501.8,606.1,378.7,590.6,341.8z"/>
<path id="XMLID_17_" class="st11" d="M482,359.3"/>
<path id="XMLID_7_" class="st12" d="M584.2,331c-5.6-14.4-21.8-23.4-21.8-23.4c-15.1-9.1-30.4-14.6-44.9-18.3
	c-3.8-1-7.5,1.9-7.5,5.8V313h-36v-17.8c0-3.9-3.7-6.8-7.5-5.8c-14.6,3.7-29.8,9.2-44.9,18.3c0,0-16.2,8.9-21.8,23.4
	c-15.7,40.1-49,167-27.7,238.7c31.7,75.9,49.7,120.8,63.4,130c13.5,9.1,40.8,11.3,56.5,10.7c15.7,0.7,43-1.5,56.5-10.7
	c13.6-9.2,31.7-54.1,63.4-130C633.2,498,599.9,371.1,584.2,331z"/>
<path id="XMLID_34_" class="st9" d="M579.3,390.3c0-26.1-2.2-51.3-6.4-74.9c-5.5-5-10.5-7.8-10.5-7.8c-15.1-9.1-30.4-14.6-44.9-18.3
	c-3.8-1-7.5,1.9-7.5,5.8V313h-36v-17.8c0-3.9-3.7-6.8-7.5-5.8c-14.6,3.7-29.8,9.2-44.9,18.3c0,0-16.2,8.9-21.8,23.4
	c-15.7,40.1-49,167-27.7,238.7c9.3,22.4,17.5,42,24.7,58.8c13.4,7.6,27.6,11.7,42.4,11.7C516.6,640.2,579.3,528.3,579.3,390.3z"/>
<path id="XMLID_6_" class="st13" d="M584.2,331c-5.6-14.4-21.8-23.4-21.8-23.4c-15.1-9.1-30.4-14.6-44.9-18.3
	c-3.8-1-7.5,1.9-7.5,5.8V313h-36v-17.8c0-3.9-3.7-6.8-7.5-5.8c-14.6,3.7-29.8,9.2-44.9,18.3c0,0-16.2,8.9-21.8,23.4
	c-15.7,40.1-49,167-27.7,238.7c31.7,75.9,49.7,120.8,63.4,130c13.5,9.1,40.8,11.3,56.5,10.7c15.7,0.7,43-1.5,56.5-10.7
	c13.6-9.2,31.7-54.1,63.4-130C633.2,498,599.9,371.1,584.2,331z"/>
<path id="XMLID_8_" class="st13" d="M474,307.1V295c0-3.9-3.6-6.7-7.4-5.8c-14.7,3.7-30,9.2-45.2,18.4c0,0-16.4,8.9-22,23.4
	c-9.2,23.4-24.3,76.4-31.1,130.7c-0.6,4.8,4.4,8.3,8.7,6c14.7-7.9,30.4-16.2,41.2-21.3c24.4-11.6,57.7-21.5,69.4-24.8
	c2.6-0.7,4.3-3.1,4.3-5.7v-96.9c0-3.3-2.7-5.9-5.9-5.9h-6.1C476.7,313,474,310.4,474,307.1z"/>
<path id="XMLID_9_" class="st13" d="M584.2,331c-5.6-14.4-21.8-23.4-21.8-23.4c-15.1-9.1-30.4-14.6-44.9-18.3
	c-3.8-1-7.5,1.9-7.5,5.8V313h-18v107.4c0,0,43.3,11.6,73.5,26c10.8,5.1,26.5,13.4,41.1,21.3c4.3,2.3,9.3-1.2,8.7-6
	C608.5,407.4,593.4,354.4,584.2,331z"/>
<path id="XMLID_16_" class="st7" d="M492,534L492,534c-9.9,0-18-8.1-18-18V306c0-5.3,4.3-9.7,9.7-9.7h16.7c5.3,0,9.7,4.3,9.7,9.7
	v210C510,526,501.9,534,492,534z"/>
<path id="XMLID_32_" class="st14" d="M510,352.3V306c0-5.3-4.3-9.7-9.7-9.7h-16.7c-5.3,0-9.7,4.3-9.7,9.7v198.8L510,352.3z"/>
<path id="XMLID_23_" class="st15" d="M499.9,468.6v-28.3c0-4.3-3.5-7.9-7.9-7.9s-7.9,3.5-7.9,7.9v28.3H499.9z"/>
<path id="XMLID_22_" class="st15" d="M499.9,476.6v28.3c0,4.3-3.5,7.9-7.9,7.9s-7.9-3.5-7.9-7.9v-28.3H499.9z"/>
<path id="XMLID_3_" class="st13" d="M492,534L492,534c-9.9,0-18-8.1-18-18V306.1c0-5.4,4.4-9.8,9.8-9.8h16.5c5.4,0,9.8,4.4,9.8,9.8
	V516C510,526,501.9,534,492,534z"/>
<path id="XMLID_5_" class="st16" d="M495.2,402.3h-6.5c-3.7,0-6.7-3-6.7-6.7v-44.5c0-3.7,3-6.7,6.7-6.7h6.5c3.7,0,6.7,3,6.7,6.7
	v44.5C502,399.3,498.9,402.3,495.2,402.3z"/>
<g id="XMLID_18_">
	<g id="XMLID_79_">
		<line id="XMLID_80_" class="st11" x1="483.1" y1="396.5" x2="500.9" y2="396.5"/>
	</g>
	<g id="XMLID_76_">
		<line id="XMLID_77_" class="st11" x1="483.1" y1="390.5" x2="500.9" y2="390.5"/>
	</g>
	<g id="XMLID_73_">
		<line id="XMLID_74_" class="st11" x1="483.1" y1="384.5" x2="500.9" y2="384.5"/>
	</g>
	<g id="XMLID_70_">
		<line id="XMLID_71_" class="st11" x1="483.1" y1="378.5" x2="500.9" y2="378.5"/>
	</g>
	<g id="XMLID_67_">
		<line id="XMLID_68_" class="st11" x1="483.1" y1="372.5" x2="500.9" y2="372.5"/>
	</g>
	<g id="XMLID_64_">
		<line id="XMLID_65_" class="st11" x1="483.1" y1="366.5" x2="500.9" y2="366.5"/>
	</g>
	<g id="XMLID_61_">
		<line id="XMLID_62_" class="st11" x1="483.1" y1="360.5" x2="500.9" y2="360.5"/>
	</g>
	<g id="XMLID_58_">
		<line id="XMLID_59_" class="st11" x1="483.1" y1="354.5" x2="500.9" y2="354.5"/>
	</g>
	<g id="XMLID_55_">
		<line id="XMLID_56_" class="st11" x1="483.1" y1="348.5" x2="500.9" y2="348.5"/>
	</g>
</g>
<g id="XMLID_19_">
	<path id="XMLID_30_" class="st8" d="M495.2,402.3c-2.2,0-4.3,0-6.5,0c-3.7,0-7-3-7.4-6.7c-1.3-14.8-1.3-29.7,0-44.5
		c0.4-3.7,3.7-6.7,7.4-6.7c2.2,0,4.3,0,6.5,0c3.7,0,7,3,7.4,6.7c1.3,14.8,1.3,29.7,0,44.5C502.3,399.3,498.9,402.3,495.2,402.3z"/>
</g>
<path id="XMLID_2_" class="st8" d="M497,402.3h-10c-2.8,0-5-2.2-5-5v-48c0-2.8,2.2-5,5-5h10c2.8,0,5,2.2,5,5v48
	C502,400.1,499.7,402.3,497,402.3z"/>
<path id="XMLID_25_" class="st8" d="M499.9,468.6v-28.3c0-4.3-3.5-7.9-7.9-7.9s-7.9,3.5-7.9,7.9v28.3H499.9z"/>
<path id="XMLID_21_" class="st8" d="M499.9,476.6v28.3c0,4.3-3.5,7.9-7.9,7.9s-7.9-3.5-7.9-7.9v-28.3H499.9z"/>
</svg>
